<svg xmlns="http://www.w3.org/2000/svg" viewBox="0 0 512 512" role="img" aria-labelledby="title"><title id="title">Recall maskable app icon</title><defs><linearGradient id="g" x1="64" y1="32" x2="448" y2="480" gradientUnits="userSpaceOnUse"><stop stop-color="#A99BFF"/><stop offset="1" stop-color="#6657E8"/></linearGradient></defs><rect width="512" height="512" fill="#0B0D13"/><path d="M145 162c0-17.7 14.3-32 32-32h105c55.9 0 95 35.7 95 87.7 0 35.4-19.1 63.5-50.8 77.1l47.6 65.1c7.2 9.9.1 23.9-12.1 23.9h-35.2c-10.2 0-19.8-5-25.7-13.3L256.7 308H219v49.8c0 14.4-11.6 26-26 26h-22c-14.4 0-26-11.6-26-26V162Zm74 33v48h60.5c13.3 0 22.2-9.3 22.2-24s-8.9-24-22.2-24H219Z" fill="url(#g)"/><circle cx="368" cy="150" r="24" fill="#63E6A4"/></svg>
