<svg xmlns="http://www.w3.org/2000/svg" viewBox="0 0 512 512" role="img" aria-labelledby="title"><title id="title">Recall app icon</title><defs><linearGradient id="g" x1="64" y1="32" x2="448" y2="480" gradientUnits="userSpaceOnUse"><stop stop-color="#A99BFF"/><stop offset="1" stop-color="#6657E8"/></linearGradient></defs><rect width="512" height="512" rx="116" fill="#0B0D13"/><path d="M126 144c0-22.1 17.9-40 40-40h122c63.5 0 108 40.6 108 99.7 0 40.2-21.7 72.2-57.7 87.7l59 80.7c9 12.3.2 29.7-15 29.7h-47.8c-12.8 0-24.8-6.2-32.2-16.6L250.5 312H214v57.8c0 17.7-14.3 32-32 32h-24c-17.7 0-32-14.3-32-32V144Zm88 38v54h68.8c15.1 0 25.2-10.5 25.2-27s-10.1-27-25.2-27H214Z" fill="url(#g)"/><circle cx="384" cy="128" r="28" fill="#63E6A4"/></svg>
